<svg xmlns="http://www.w3.org/2000/svg" viewBox="0 0 219.7 50.86"><defs><style>.cls-1{fill:#50d8d7;}.cls-2{fill:#547aa5;}.cls-3{fill:#fff;}</style></defs><title>logo</title><g id="Layer_2" data-name="Layer 2"><g id="Layer_1-2" data-name="Layer 1"><path class="cls-1" d="M1.89,49.72a3.13,3.13,0,0,1-.81-2.32V27.7a3.15,3.15,0,0,1,.81-2.32,3.13,3.13,0,0,1,2.32-.81h7.44a16.28,16.28,0,0,1,7.42,1.57,11,11,0,0,1,4.76,4.47,13.71,13.71,0,0,1,1.66,6.92,14.1,14.1,0,0,1-1.64,7A10.77,10.77,0,0,1,19.1,49a16.59,16.59,0,0,1-7.45,1.55H4.21A3.13,3.13,0,0,1,1.89,49.72Zm9.28-4.64c2.53,0,4.42-.62,5.69-1.86s1.89-3.13,1.89-5.69-.63-4.44-1.89-5.67S13.7,30,11.17,30H7.85V45.08Z"/><path class="cls-1" d="M30.35,49.72a3.13,3.13,0,0,1-.81-2.32V27.7a2.83,2.83,0,0,1,3.13-3.13H45.41a3.72,3.72,0,0,1,2.39.66,2.36,2.36,0,0,1,.81,1.92c0,1.77-1.07,2.65-3.2,2.65H36.13v4.93h8.54c2.14,0,3.21.88,3.21,2.62a2.33,2.33,0,0,1-.81,1.91,3.73,3.73,0,0,1-2.4.67H36.13V45.3h9.28c2.13,0,3.2.88,3.2,2.65a2.35,2.35,0,0,1-.81,1.92,3.72,3.72,0,0,1-2.39.66H32.67A3.13,3.13,0,0,1,30.35,49.72Z"/><path class="cls-1" d="M71.59,24.83a3.13,3.13,0,0,1,1.62-.44,3.77,3.77,0,0,1,2.39.84,2.64,2.64,0,0,1,1.07,2.14,2.87,2.87,0,0,1-.33,1.29L66.62,48.72a3.34,3.34,0,0,1-1.44,1.53,4.14,4.14,0,0,1-2.06.54,4.09,4.09,0,0,1-2.06-.54,3.34,3.34,0,0,1-1.44-1.53L49.9,28.66a2.78,2.78,0,0,1-.29-1.29,2.6,2.6,0,0,1,1.1-2.12,4,4,0,0,1,2.47-.86,3.25,3.25,0,0,1,1.64.44A2.92,2.92,0,0,1,56,26.16l7.25,15.68,7.21-15.68A2.85,2.85,0,0,1,71.59,24.83Z"/><path class="cls-1" d="M80,49.72a3.13,3.13,0,0,1-.81-2.32V27.7a2.83,2.83,0,0,1,3.13-3.13H95a3.72,3.72,0,0,1,2.39.66,2.36,2.36,0,0,1,.81,1.92c0,1.77-1.07,2.65-3.2,2.65H85.76v4.93H94.3c2.14,0,3.21.88,3.21,2.62a2.33,2.33,0,0,1-.81,1.91,3.73,3.73,0,0,1-2.4.67H85.76V45.3H95c2.13,0,3.2.88,3.2,2.65a2.35,2.35,0,0,1-.81,1.92,3.72,3.72,0,0,1-2.39.66H82.3A3.13,3.13,0,0,1,80,49.72Z"/><path class="cls-1" d="M102,49.72a3.2,3.2,0,0,1-.81-2.36V27.7a3.27,3.27,0,0,1,.9-2.41,3.32,3.32,0,0,1,2.45-.9,3.41,3.41,0,0,1,2.5.9,3.2,3.2,0,0,1,.92,2.41V45h8.47q3.21,0,3.21,2.76a2.55,2.55,0,0,1-.8,2.07,3.69,3.69,0,0,1-2.41.66H104.28A3.13,3.13,0,0,1,102,49.72Z"/><path class="cls-1" d="M126.13,49.22a11.21,11.21,0,0,1-4.51-4.64,15,15,0,0,1-1.58-7,15,15,0,0,1,1.58-7,11.1,11.1,0,0,1,4.51-4.62,15.53,15.53,0,0,1,13.81,0,10.94,10.94,0,0,1,4.49,4.62A15.08,15.08,0,0,1,146,37.53a14.84,14.84,0,0,1-1.58,7,11.15,11.15,0,0,1-4.51,4.64,15.27,15.27,0,0,1-13.77,0Zm11.51-5.63a9.6,9.6,0,0,0,1.65-6.06,9.45,9.45,0,0,0-1.67-6,6.16,6.16,0,0,0-9.19,0q-1.65,2-1.65,6.05c0,2.68.55,4.7,1.65,6.08a6.16,6.16,0,0,0,9.21,0Z"/><path class="cls-1" d="M150.91,49.85a3.32,3.32,0,0,1-.9-2.45V27.7a2.83,2.83,0,0,1,3.13-3.13h9.42a9.55,9.55,0,0,1,6.7,2.19,7.84,7.84,0,0,1,2.4,6.1,7.82,7.82,0,0,1-2.42,6.07,9.51,9.51,0,0,1-6.68,2.21h-5.78V47.4a3.29,3.29,0,0,1-.92,2.45,3.42,3.42,0,0,1-2.5.9A3.32,3.32,0,0,1,150.91,49.85Zm10.73-13.79a4.23,4.23,0,0,0,2.78-.77,3,3,0,0,0,.9-2.4c0-2.13-1.22-3.2-3.68-3.2h-4.86v6.37Z"/><path class="cls-1" d="M175.74,49.72a3.13,3.13,0,0,1-.81-2.32V27.7a2.83,2.83,0,0,1,3.13-3.13H190.8a3.7,3.7,0,0,1,2.39.66,2.36,2.36,0,0,1,.81,1.92c0,1.77-1.06,2.65-3.2,2.65h-9.28v4.93h8.54c2.14,0,3.21.88,3.21,2.62a2.33,2.33,0,0,1-.81,1.91,3.73,3.73,0,0,1-2.4.67h-8.54V45.3h9.28c2.14,0,3.2.88,3.2,2.65a2.35,2.35,0,0,1-.81,1.92,3.7,3.7,0,0,1-2.39.66H178.06A3.13,3.13,0,0,1,175.74,49.72Z"/><path class="cls-1" d="M219.41,48.1a2.46,2.46,0,0,1-1,2,3.46,3.46,0,0,1-2.26.79,3.54,3.54,0,0,1-3-1.62l-4.79-7a3.83,3.83,0,0,0-1.09-1.08,2.55,2.55,0,0,0-1.34-.35h-2.39V47.4a3.35,3.35,0,0,1-.89,2.45,3.25,3.25,0,0,1-2.43.9,3.11,3.11,0,0,1-3.35-3.35V27.7A2.83,2.83,0,0,1,200,24.57h9.24c3.14,0,5.51.68,7.09,2.05a7.36,7.36,0,0,1,2.37,5.9,7.77,7.77,0,0,1-1.62,5,7.93,7.93,0,0,1-4.56,2.75,5,5,0,0,1,2.12.81,7.49,7.49,0,0,1,1.78,1.87l2.28,3.28A3.37,3.37,0,0,1,219.41,48.1Zm-8-13.07a2.62,2.62,0,0,0,1-2.28,2.71,2.71,0,0,0-1-2.34,5.56,5.56,0,0,0-3.23-.72H203.5v6h4.71A5.75,5.75,0,0,0,211.44,35Z"/><path class="cls-2" d="M10.43,14.07a.88.88,0,0,1-.28.69,1,1,0,0,1-.72.27,1.19,1.19,0,0,1-.54-.11L1,11.55A1.58,1.58,0,0,1,.26,11a1.55,1.55,0,0,1,0-1.72A1.44,1.44,0,0,1,1,8.7L8.89,5.3a1.55,1.55,0,0,1,.54-.1,1.08,1.08,0,0,1,.72.26.91.91,0,0,1,.28.7A.8.8,0,0,1,9.9,7L2.35,10.11,9.9,13.28A.8.8,0,0,1,10.43,14.07Z"/><path class="cls-1" d="M35.26,1.2A1,1,0,0,1,35.84,1a1.07,1.07,0,0,1,.71.26.87.87,0,0,1,.31.7,1.18,1.18,0,0,1-.08.43L32.05,15.63a1.13,1.13,0,0,1-.47.56,1.41,1.41,0,0,1-.7.19,1.38,1.38,0,0,1-.69-.19,1.09,1.09,0,0,1-.45-.56l-3.89-11-4,11a1,1,0,0,1-.45.56,1.37,1.37,0,0,1-.68.19,1.32,1.32,0,0,1-.69-.19,1.16,1.16,0,0,1-.46-.56L14.86,2.42A1,1,0,0,1,14.77,2a.86.86,0,0,1,.33-.7A1.19,1.19,0,0,1,15.87,1a1,1,0,0,1,.58.17,1,1,0,0,1,.4.51L20.8,13.09l4-11.27a1.15,1.15,0,0,1,.42-.56,1.09,1.09,0,0,1,.63-.19,1,1,0,0,1,.62.2,1.31,1.31,0,0,1,.43.57l3.93,11.35,4-11.48A1,1,0,0,1,35.26,1.2Z"/><path class="cls-1" d="M48.49,9.75v5.56a1,1,0,0,1-.29.75,1.16,1.16,0,0,1-.8.28,1.13,1.13,0,0,1-.78-.28,1,1,0,0,1-.28-.75V9.77a2.81,2.81,0,0,0-.53-1.88,2,2,0,0,0-1.63-.6,2.81,2.81,0,0,0-2.1.81,3,3,0,0,0-.79,2.18v5a1,1,0,0,1-.29.75,1.09,1.09,0,0,1-.78.28,1.14,1.14,0,0,1-.79-.28,1,1,0,0,1-.3-.75V2.07a.92.92,0,0,1,.31-.74,1.13,1.13,0,0,1,.8-.28,1.11,1.11,0,0,1,.76.26,1,1,0,0,1,.29.72V7.38A3.49,3.49,0,0,1,42.72,6a4.39,4.39,0,0,1,2.05-.47Q48.49,5.54,48.49,9.75Z"/><path class="cls-1" d="M53.27,15.72a4.56,4.56,0,0,1-1.79-1.9A6.17,6.17,0,0,1,50.85,11a6.24,6.24,0,0,1,.63-2.88A4.48,4.48,0,0,1,53.27,6.2a5.87,5.87,0,0,1,5.41,0,4.44,4.44,0,0,1,1.8,1.89A6.24,6.24,0,0,1,61.11,11a6.17,6.17,0,0,1-.63,2.85,4.52,4.52,0,0,1-1.8,1.9,5.87,5.87,0,0,1-5.41,0Zm4.9-2A4.3,4.3,0,0,0,58.93,11a4.31,4.31,0,0,0-.77-2.75,3,3,0,0,0-4.36,0A4.25,4.25,0,0,0,53,11a4.3,4.3,0,0,0,.76,2.76,3,3,0,0,0,4.38,0Z"/><path class="cls-1" d="M84.22,5.6a1.11,1.11,0,0,1,.73.28.88.88,0,0,1,.32.68.93.93,0,0,1-.08.39l-3.55,8.66a1,1,0,0,1-.43.52,1.28,1.28,0,0,1-1.31,0,1,1,0,0,1-.42-.52L76.7,8.75,74,15.61a1,1,0,0,1-.42.52,1.2,1.2,0,0,1-.65.18,1.28,1.28,0,0,1-.65-.18,1.06,1.06,0,0,1-.46-.52L68.27,7a.9.9,0,0,1-.08-.36.85.85,0,0,1,.35-.71,1.24,1.24,0,0,1,.78-.28.88.88,0,0,1,.88.62L73,13.51l2.82-7.22a1,1,0,0,1,.4-.52,1.19,1.19,0,0,1,.6-.17,1.14,1.14,0,0,1,.58.17,1,1,0,0,1,.41.52l2.82,7.18,2.76-7.23A.87.87,0,0,1,84.22,5.6Z"/><path class="cls-1" d="M94.58,6.59a4.39,4.39,0,0,1,1,3.18v5.54a1,1,0,0,1-.28.76,1,1,0,0,1-1.8-.76v-.79a3,3,0,0,1-1.2,1.38,3.59,3.59,0,0,1-1.87.48A4.23,4.23,0,0,1,88.56,16a3.21,3.21,0,0,1-1.33-1.16,3,3,0,0,1-.48-1.67,2.59,2.59,0,0,1,.58-1.79,3.6,3.6,0,0,1,2-.93A20.15,20.15,0,0,1,93,10.14h.49V9.52A2.53,2.53,0,0,0,93,7.78a2.08,2.08,0,0,0-1.58-.53A5,5,0,0,0,90,7.44,10.19,10.19,0,0,0,88.56,8a2.1,2.1,0,0,1-.81.32.64.64,0,0,1-.52-.24.84.84,0,0,1-.21-.6.92.92,0,0,1,.19-.56,1.7,1.7,0,0,1,.58-.48,7.69,7.69,0,0,1,1.76-.66,8.37,8.37,0,0,1,1.94-.24A4.1,4.1,0,0,1,94.58,6.59ZM92.76,14a2.92,2.92,0,0,0,.74-2.06v-.56h-.38a16.71,16.71,0,0,0-2.57.15,2.47,2.47,0,0,0-1.28.51,1.28,1.28,0,0,0-.38,1,1.58,1.58,0,0,0,.55,1.26,2,2,0,0,0,1.39.5A2.52,2.52,0,0,0,92.76,14Z"/><path class="cls-1" d="M107.92,9.75v5.56a1,1,0,0,1-.29.76,1.15,1.15,0,0,1-.81.27,1.13,1.13,0,0,1-.78-.28,1,1,0,0,1-.28-.75V9.86a3,3,0,0,0-.53-1.95,2,2,0,0,0-1.63-.62,2.81,2.81,0,0,0-2.1.81,3,3,0,0,0-.79,2.18v5a1,1,0,0,1-.29.75,1.09,1.09,0,0,1-.78.28,1.14,1.14,0,0,1-.79-.28,1,1,0,0,1-.3-.75V6.61a1,1,0,0,1,.31-.74,1.12,1.12,0,0,1,.78-.29,1,1,0,0,1,1,1v.87A3.52,3.52,0,0,1,102.1,6a4.28,4.28,0,0,1,2.07-.49Q107.92,5.54,107.92,9.75Z"/><path class="cls-1" d="M116.65,14.94a.77.77,0,0,1,.2.56.73.73,0,0,1-.33.65,1.58,1.58,0,0,1-1,.19l-.58-.05a3.69,3.69,0,0,1-2.59-1.06,3.89,3.89,0,0,1-.85-2.74v-5h-1.28c-.63,0-1-.28-1-.83a.8.8,0,0,1,.25-.61,1,1,0,0,1,.7-.22h1.28V3.59a1,1,0,0,1,.29-.77,1.09,1.09,0,0,1,.78-.28,1.14,1.14,0,0,1,.79.28,1,1,0,0,1,.3.77V5.8h2.11a1,1,0,0,1,.7.22.8.8,0,0,1,.25.61.79.79,0,0,1-.25.62,1,1,0,0,1-.7.21h-2.11v5.18a2.15,2.15,0,0,0,.42,1.47,1.79,1.79,0,0,0,1.27.54l.6,0A1.06,1.06,0,0,1,116.65,14.94Z"/><path class="cls-1" d="M118.48,15.48a1.69,1.69,0,0,1-.55-.49,1.12,1.12,0,0,1-.16-.58.89.89,0,0,1,.2-.58.61.61,0,0,1,.49-.23,2.08,2.08,0,0,1,.87.34,9,9,0,0,0,1.25.56,4.79,4.79,0,0,0,1.53.21,3,3,0,0,0,1.61-.36,1.16,1.16,0,0,0,.57-1,1,1,0,0,0-.22-.68,1.86,1.86,0,0,0-.78-.46,12.93,12.93,0,0,0-1.65-.44,6.38,6.38,0,0,1-2.7-1.1,2.36,2.36,0,0,1-.83-1.89,2.73,2.73,0,0,1,.54-1.66,3.62,3.62,0,0,1,1.47-1.15,5.37,5.37,0,0,1,2.14-.4,6.22,6.22,0,0,1,1.67.22,4.81,4.81,0,0,1,1.43.65,1.35,1.35,0,0,1,.71,1.1.86.86,0,0,1-.2.57.63.63,0,0,1-.49.24.92.92,0,0,1-.38-.09,3.5,3.5,0,0,1-.51-.28,8.85,8.85,0,0,0-1.08-.53,3.54,3.54,0,0,0-1.25-.19,2.54,2.54,0,0,0-1.45.38,1.23,1.23,0,0,0-.54,1,1.06,1.06,0,0,0,.5.93,6.2,6.2,0,0,0,1.89.63,10.11,10.11,0,0,1,2.25.69,2.56,2.56,0,0,1,1.16.95,2.63,2.63,0,0,1,.36,1.44,2.61,2.61,0,0,1-1.17,2.23,5.14,5.14,0,0,1-3.11.85A6.45,6.45,0,0,1,118.48,15.48Z"/><path class="cls-1" d="M140.15,14.94a.77.77,0,0,1,.2.56.73.73,0,0,1-.33.65,1.58,1.58,0,0,1-1,.19l-.58-.05a3.69,3.69,0,0,1-2.59-1.06,3.89,3.89,0,0,1-.85-2.74v-5h-1.29c-.62,0-.94-.28-.94-.83a.8.8,0,0,1,.25-.61,1,1,0,0,1,.69-.22H135V3.59a1,1,0,0,1,.29-.77,1.09,1.09,0,0,1,.78-.28,1.15,1.15,0,0,1,.79.28,1,1,0,0,1,.3.77V5.8h2.11A1,1,0,0,1,140,6a.8.8,0,0,1,.25.61.79.79,0,0,1-.25.62,1,1,0,0,1-.7.21h-2.11v5.18a2.21,2.21,0,0,0,.41,1.47,1.83,1.83,0,0,0,1.28.54l.6,0A1.06,1.06,0,0,1,140.15,14.94Z"/><path class="cls-1" d="M143.74,15.72a4.58,4.58,0,0,1-1.8-1.9,6.17,6.17,0,0,1-.63-2.85,6.24,6.24,0,0,1,.63-2.88,4.5,4.5,0,0,1,1.8-1.89,5.87,5.87,0,0,1,5.41,0A4.44,4.44,0,0,1,151,8.09a6.24,6.24,0,0,1,.63,2.88,6.17,6.17,0,0,1-.63,2.85,4.52,4.52,0,0,1-1.8,1.9,5.87,5.87,0,0,1-5.41,0Zm4.9-2A4.36,4.36,0,0,0,149.4,11a4.31,4.31,0,0,0-.77-2.75,3,3,0,0,0-4.37,0,4.31,4.31,0,0,0-.77,2.75,4.36,4.36,0,0,0,.76,2.76,3,3,0,0,0,4.39,0Z"/><path class="cls-1" d="M167.63,6.2a4.44,4.44,0,0,1,1.64,1.88,6.53,6.53,0,0,1,.59,2.85,6.58,6.58,0,0,1-.59,2.84,4.45,4.45,0,0,1-1.65,1.92,4.55,4.55,0,0,1-4.48.19,3.35,3.35,0,0,1-1.36-1.45v.86a1,1,0,0,1-.29.76,1.07,1.07,0,0,1-.78.29,1.1,1.1,0,0,1-.79-.29,1,1,0,0,1-.3-.76V2.07a.92.92,0,0,1,.31-.74,1.26,1.26,0,0,1,1.56,0,1,1,0,0,1,.29.72V7.51a3.37,3.37,0,0,1,1.36-1.46,4.14,4.14,0,0,1,2.08-.51A4.4,4.4,0,0,1,167.63,6.2Zm-.75,7.48a4.31,4.31,0,0,0,.78-2.75,4.24,4.24,0,0,0-.77-2.71,2.66,2.66,0,0,0-2.18-1,2.58,2.58,0,0,0-2.17,1,4.32,4.32,0,0,0-.76,2.74,4.34,4.34,0,0,0,.76,2.74,2.58,2.58,0,0,0,2.17,1A2.62,2.62,0,0,0,166.88,13.68Z"/><path class="cls-1" d="M180.91,13.83a.92.92,0,0,1,.2.6,1.23,1.23,0,0,1-.77,1.05,6.4,6.4,0,0,1-1.64.66,6.51,6.51,0,0,1-1.7.24,5.26,5.26,0,0,1-3.91-1.44A5.36,5.36,0,0,1,171.65,11a6.16,6.16,0,0,1,.64-2.84,4.66,4.66,0,0,1,1.77-1.93,5,5,0,0,1,2.6-.68A4.22,4.22,0,0,1,180,6.89a5.16,5.16,0,0,1,1.22,3.63c0,.57-.25.86-.77.86h-6.61Q174,14.7,177,14.69a4,4,0,0,0,1.37-.21,11.57,11.57,0,0,0,1.22-.56l.35-.18a1.19,1.19,0,0,1,.48-.14A.61.61,0,0,1,180.91,13.83Zm-6.2-5.92a3.7,3.7,0,0,0-.9,2.23h5.52a3.57,3.57,0,0,0-.74-2.24,2.37,2.37,0,0,0-1.89-.78A2.6,2.6,0,0,0,174.71,7.91Z"/><path class="cls-1" d="M195.68,6.59a4.39,4.39,0,0,1,1,3.18v5.54a1,1,0,0,1-.28.76,1.06,1.06,0,0,1-.77.27,1,1,0,0,1-1-1v-.79a3,3,0,0,1-1.2,1.38,3.6,3.6,0,0,1-1.88.48,4.22,4.22,0,0,1-1.88-.42,3.21,3.21,0,0,1-1.33-1.16,3,3,0,0,1-.48-1.67,2.59,2.59,0,0,1,.58-1.79,3.6,3.6,0,0,1,1.95-.93,20.07,20.07,0,0,1,3.73-.27h.49V9.52a2.53,2.53,0,0,0-.49-1.74,2.08,2.08,0,0,0-1.58-.53,5,5,0,0,0-1.41.19,10.19,10.19,0,0,0-1.46.56,2.1,2.1,0,0,1-.81.32.64.64,0,0,1-.52-.24.84.84,0,0,1-.21-.6.86.86,0,0,1,.19-.56,1.7,1.7,0,0,1,.58-.48,7.69,7.69,0,0,1,1.76-.66,8.37,8.37,0,0,1,1.94-.24A4.13,4.13,0,0,1,195.68,6.59ZM193.85,14a2.89,2.89,0,0,0,.75-2.06v-.56h-.38a16.71,16.71,0,0,0-2.57.15,2.47,2.47,0,0,0-1.28.51,1.28,1.28,0,0,0-.39,1,1.59,1.59,0,0,0,.56,1.26,2,2,0,0,0,1.39.5A2.5,2.5,0,0,0,193.85,14Z"/><path class="cls-3" d="M202.85,17.56a1.13,1.13,0,0,1-.62.19,1.15,1.15,0,0,1-.76-.29.94.94,0,0,1-.33-.74,1.21,1.21,0,0,1,.06-.38l5-15.55a1.17,1.17,0,0,1,.41-.6,1.06,1.06,0,0,1,.62-.19,1.13,1.13,0,0,1,.76.29.94.94,0,0,1,.33.74,1.31,1.31,0,0,1-.06.38l-5,15.55A1.12,1.12,0,0,1,202.85,17.56Z"/><path class="cls-2" d="M219.44,9.26a1.55,1.55,0,0,1,0,1.72,1.58,1.58,0,0,1-.7.57l-7.94,3.37a1.12,1.12,0,0,1-.53.11,1,1,0,0,1-.72-.27.88.88,0,0,1-.29-.69.81.81,0,0,1,.54-.79l7.55-3.17L209.8,7a.81.81,0,0,1-.54-.79.92.92,0,0,1,.29-.7,1.06,1.06,0,0,1,.72-.26,1.46,1.46,0,0,1,.53.1l7.94,3.4A1.44,1.44,0,0,1,219.44,9.26Z"/></g></g></svg>