<?xml version="1.0" standalone="no"?>
<!DOCTYPE svg PUBLIC "-//W3C//DTD SVG 20010904//EN"
 "http://www.w3.org/TR/2001/REC-SVG-20010904/DTD/svg10.dtd">
<svg version="1.0" xmlns="http://www.w3.org/2000/svg"
 width="960.000000pt" height="960.000000pt" viewBox="0 0 960.000000 960.000000"
 preserveAspectRatio="xMidYMid meet">
<metadata>
Created by potrace 1.11, written by Peter Selinger 2001-2013
</metadata>
<g transform="translate(0.000000,960.000000) scale(0.100000,-0.100000)"
fill="#000000" stroke="none">
<path d="M5500 7627 c-124 -35 -194 -114 -245 -277 -15 -47 -40 -123 -55 -170
-31 -94 -114 -352 -115 -360 -2 -9 -106 -335 -116 -360 -5 -14 -11 -34 -13
-45 -3 -11 -29 -94 -59 -185 -30 -91 -63 -194 -74 -230 -12 -36 -49 -152 -83
-259 -34 -106 -63 -199 -65 -205 -1 -6 -5 -20 -9 -31 -27 -72 -129 -399 -129
-412 0 -7 -4 -13 -9 -13 -4 0 -8 -11 -8 -23 0 -13 -3 -27 -7 -31 -4 -3 -8 -12
-9 -19 -2 -15 -113 -365 -124 -392 -4 -11 -17 -49 -28 -85 -11 -36 -45 -146
-77 -245 -31 -99 -61 -196 -67 -215 -6 -19 -15 -41 -21 -47 -5 -7 -7 -13 -3
-13 3 0 0 -16 -8 -35 -9 -20 -15 -36 -14 -38 0 -1 -19 -63 -43 -137 -24 -74
-44 -137 -44 -140 0 -3 -23 -72 -50 -155 -27 -82 -50 -154 -51 -160 -2 -11
-138 -438 -182 -570 -14 -44 -27 -82 -27 -85 0 -3 -11 -36 -24 -75 -13 -38
-24 -74 -25 -80 -2 -5 -15 -49 -29 -96 -52 -166 -29 -290 72 -381 77 -69 140
-93 246 -93 78 0 97 4 145 27 30 15 66 38 80 50 24 21 74 86 76 98 0 3 6 19
13 35 7 17 31 86 53 155 21 69 41 131 43 138 3 7 4 13 5 15 0 1 13 43 30 92
17 50 33 97 35 105 2 8 16 53 31 100 15 47 29 90 30 95 1 6 48 152 104 325 56
173 103 322 105 330 2 8 22 71 45 140 23 69 43 133 45 143 2 9 7 22 10 27 3 5
8 18 10 27 2 10 21 74 43 143 41 128 55 171 57 180 1 3 7 18 13 33 7 16 12 32
12 37 0 4 25 86 56 182 31 95 56 174 55 175 0 2 6 20 13 40 8 21 47 139 86
263 114 359 190 597 226 709 19 57 34 107 34 112 0 4 4 18 9 31 5 13 9 25 9
28 0 3 7 23 15 45 14 35 43 126 184 570 19 61 44 137 55 170 11 33 21 65 22
70 3 12 85 274 93 295 3 8 7 20 8 25 2 6 19 60 39 120 19 61 37 120 39 132 2
12 5 25 8 27 11 11 -1 122 -18 169 -42 117 -172 207 -306 213 -40 2 -92 -2
-117 -9z"/>
<path d="M2905 5960 c-50 -14 -144 -53 -455 -187 -19 -8 -44 -19 -55 -23 -11
-4 -50 -22 -87 -39 -37 -17 -69 -31 -72 -31 -3 0 -31 -12 -63 -26 -31 -15 -62
-27 -67 -28 -6 -1 -42 -16 -79 -34 -38 -18 -70 -32 -73 -32 -2 0 -26 -10 -52
-21 -66 -30 -89 -40 -242 -104 -74 -31 -159 -68 -188 -81 -29 -13 -54 -24 -57
-24 -2 0 -34 -14 -72 -31 -37 -16 -77 -34 -88 -39 -11 -4 -41 -17 -67 -29 -26
-12 -50 -21 -53 -21 -2 0 -33 -13 -67 -29 -35 -16 -102 -45 -151 -65 -89 -37
-155 -65 -217 -94 -19 -8 -37 -16 -40 -17 -3 0 -27 -11 -54 -23 -27 -12 -51
-22 -53 -22 -3 0 -34 -13 -70 -30 -35 -16 -67 -30 -69 -30 -8 0 -92 -38 -159
-71 -54 -27 -168 -119 -148 -119 4 0 1 -6 -7 -13 -24 -19 -68 -109 -85 -173
-30 -113 -9 -269 50 -370 15 -26 54 -73 85 -103 64 -62 118 -92 300 -166 75
-31 107 -45 172 -74 26 -11 50 -21 53 -21 3 0 35 -14 72 -31 38 -17 77 -34 88
-39 11 -4 63 -26 115 -48 52 -23 145 -62 205 -88 61 -25 128 -54 150 -64 22
-10 128 -55 235 -100 107 -45 209 -88 225 -95 17 -7 107 -46 200 -86 297 -125
379 -161 433 -185 29 -13 54 -24 56 -24 3 0 284 -118 391 -165 147 -64 321
-37 415 62 56 60 75 114 74 213 -1 147 -53 209 -235 280 -29 12 -71 29 -93 39
-42 19 -77 33 -86 36 -3 1 -23 9 -45 19 -22 9 -78 33 -125 53 -80 33 -103 42
-182 77 -18 8 -58 24 -88 36 -30 12 -68 28 -85 35 -16 7 -102 43 -190 80 -186
77 -279 116 -427 179 -59 26 -109 46 -112 46 -3 0 -29 11 -58 24 -105 47 -226
98 -243 101 -5 2 -39 16 -75 33 -36 17 -77 34 -93 37 -15 4 -30 11 -33 16 -3
5 -10 7 -15 4 -5 -4 -9 -2 -9 2 0 5 -17 15 -37 22 -21 7 -47 16 -58 21 -56 25
-211 92 -220 94 -5 2 -23 9 -40 16 l-30 12 25 11 c14 6 43 19 65 28 50 22 115
48 118 48 1 0 34 14 72 31 39 17 120 52 180 77 61 25 130 54 155 65 24 11 49
21 55 22 5 1 15 4 20 7 6 4 48 22 95 42 111 47 271 113 340 142 49 20 285 120
350 147 14 6 30 12 35 14 6 1 33 13 60 25 28 13 52 24 55 24 3 1 23 9 45 19
22 10 87 37 145 61 58 23 121 49 140 58 30 13 59 25 80 32 3 1 27 11 53 23 27
12 51 22 54 22 3 0 24 9 47 20 23 10 75 33 116 50 92 38 200 92 200 99 0 4 12
19 26 35 43 46 65 148 50 237 -6 42 -43 105 -83 145 -83 81 -220 110 -348 74z"/>
<path d="M6539 5975 c-2 -1 -21 -6 -42 -9 -133 -21 -240 -155 -236 -295 3
-135 58 -206 204 -269 100 -43 128 -55 135 -57 3 -1 23 -9 45 -19 22 -10 90
-38 150 -63 61 -25 124 -51 140 -58 17 -8 64 -28 105 -45 41 -17 100 -42 131
-56 31 -13 59 -24 62 -24 4 0 30 -11 59 -24 29 -14 109 -48 178 -76 69 -28
139 -57 155 -65 28 -13 84 -36 95 -40 3 -1 16 -6 30 -12 14 -6 86 -37 160 -68
74 -31 149 -63 167 -71 17 -8 34 -14 37 -14 3 0 25 -9 49 -19 23 -11 76 -34
117 -51 108 -45 112 -46 150 -63 19 -8 118 -50 220 -92 102 -42 186 -78 188
-80 4 -3 -84 -45 -103 -49 -5 -1 -28 -10 -50 -20 -22 -10 -94 -40 -160 -67
-66 -28 -138 -58 -160 -68 -22 -10 -67 -29 -100 -42 -33 -13 -63 -28 -67 -34
-4 -5 -8 -7 -8 -3 0 3 -37 -9 -82 -28 -46 -19 -103 -44 -128 -54 -25 -10 -76
-33 -115 -50 -38 -18 -78 -32 -87 -33 -10 -1 -18 -4 -18 -7 0 -3 -17 -12 -37
-19 -36 -13 -103 -40 -148 -61 -36 -17 -620 -261 -630 -264 -5 -1 -36 -15 -69
-29 -32 -15 -62 -27 -66 -27 -4 0 -20 -6 -36 -14 -36 -17 -63 -29 -248 -107
-221 -93 -268 -149 -262 -313 2 -64 8 -89 27 -121 38 -65 79 -103 138 -133 50
-24 67 -27 151 -26 52 0 104 3 115 6 30 9 159 62 165 68 3 3 12 6 20 8 8 2 33
12 57 23 24 10 63 28 87 39 25 11 47 20 50 20 5 0 61 24 141 60 102 46 282
120 292 120 7 0 13 4 13 8 0 4 10 8 21 9 12 1 29 9 38 17 10 9 22 16 28 16 11
0 116 43 145 60 10 6 25 10 33 10 8 0 15 5 15 12 0 6 3 9 6 6 5 -6 43 9 172
68 29 13 54 24 56 24 2 0 21 8 42 17 22 9 41 17 44 18 3 1 16 7 30 13 14 6
122 52 240 102 118 50 231 98 250 106 19 8 43 19 52 24 10 6 25 10 33 10 8 0
15 5 15 10 0 6 3 9 8 8 7 -1 22 4 87 32 22 10 85 37 140 60 55 23 124 52 153
66 29 13 55 24 58 24 5 0 61 25 156 70 59 27 155 120 193 184 44 76 64 163 61
264 -2 48 -6 98 -9 111 -11 40 -63 145 -87 171 -12 14 -25 30 -28 36 -12 19
-103 84 -146 103 -22 10 -122 53 -221 95 -99 43 -193 83 -210 90 -16 8 -51 23
-77 35 -26 12 -49 21 -51 21 -3 0 -30 11 -61 25 -31 14 -58 25 -61 25 -3 0
-20 7 -38 17 -17 9 -36 18 -42 19 -9 2 -329 140 -440 189 -22 10 -42 19 -45
20 -15 5 -52 21 -110 47 -36 17 -69 31 -75 32 -5 2 -21 8 -35 13 -34 15 -188
81 -225 98 -16 7 -142 61 -280 120 -137 58 -264 112 -280 120 -28 13 -84 36
-95 40 -9 3 -53 22 -135 58 -118 52 -165 67 -238 72 -35 2 -66 2 -68 0z"/>
</g>
</svg>
